<svg width="600" height="377" xmlns="http://www.w3.org/2000/svg">
  <rect width="600" height="377" fill="#ffffff" rx="10"/>
  <text x="20" y="40" font-family="'Segoe UI', Ubuntu, Sans-Serif" font-size="18" font-weight="bold" fill="#2f80ed">Language Statistics</text>

  <text x="20" y="77" font-family="'Segoe UI', Ubuntu, monospace" font-size="14" fill="#333" font-weight="600">C</text>
  <rect x="110" y="60" width="350" height="20" fill="#e1e4e8" rx="3"/>
  <rect x="110" y="60" width="132" height="20" fill="#555555" rx="3"/>
  <text x="470" y="77" font-family="'Segoe UI', Ubuntu, monospace" font-size="12" fill="#666">37.8% (469.9 KB)</text>

  <text x="20" y="110" font-family="'Segoe UI', Ubuntu, monospace" font-size="14" fill="#333" font-weight="600">C++</text>
  <rect x="110" y="93" width="350" height="20" fill="#e1e4e8" rx="3"/>
  <rect x="110" y="93" width="89" height="20" fill="#f34b7d" rx="3"/>
  <text x="470" y="110" font-family="'Segoe UI', Ubuntu, monospace" font-size="12" fill="#666">25.5% (316.2 KB)</text>

  <text x="20" y="143" font-family="'Segoe UI', Ubuntu, monospace" font-size="14" fill="#333" font-weight="600">Ruby</text>
  <rect x="110" y="126" width="350" height="20" fill="#e1e4e8" rx="3"/>
  <rect x="110" y="126" width="62" height="20" fill="#701516" rx="3"/>
  <text x="470" y="143" font-family="'Segoe UI', Ubuntu, monospace" font-size="12" fill="#666">17.8% (220.7 KB)</text>

  <text x="20" y="176" font-family="'Segoe UI', Ubuntu, monospace" font-size="14" fill="#333" font-weight="600">Go</text>
  <rect x="110" y="159" width="350" height="20" fill="#e1e4e8" rx="3"/>
  <rect x="110" y="159" width="41" height="20" fill="#00ADD8" rx="3"/>
  <text x="470" y="176" font-family="'Segoe UI', Ubuntu, monospace" font-size="12" fill="#666">11.9% (147.3 KB)</text>

  <text x="20" y="209" font-family="'Segoe UI', Ubuntu, monospace" font-size="14" fill="#333" font-weight="600">Makefile</text>
  <rect x="110" y="192" width="350" height="20" fill="#e1e4e8" rx="3"/>
  <rect x="110" y="192" width="15" height="20" fill="#427819" rx="3"/>
  <text x="470" y="209" font-family="'Segoe UI', Ubuntu, monospace" font-size="12" fill="#666">4.3% (53.7 KB)</text>

  <text x="20" y="242" font-family="'Segoe UI', Ubuntu, monospace" font-size="14" fill="#333" font-weight="600">TypeScript</text>
  <rect x="110" y="225" width="350" height="20" fill="#e1e4e8" rx="3"/>
  <rect x="110" y="225" width="4" height="20" fill="#3178c6" rx="3"/>
  <text x="470" y="242" font-family="'Segoe UI', Ubuntu, monospace" font-size="12" fill="#666">1.3% (16.6 KB)</text>

  <text x="20" y="275" font-family="'Segoe UI', Ubuntu, monospace" font-size="14" fill="#333" font-weight="600">JavaScript</text>
  <rect x="110" y="258" width="350" height="20" fill="#e1e4e8" rx="3"/>
  <rect x="110" y="258" width="3" height="20" fill="#f1e05a" rx="3"/>
  <text x="470" y="275" font-family="'Segoe UI', Ubuntu, monospace" font-size="12" fill="#666">0.9% (11.7 KB)</text>

  <text x="20" y="308" font-family="'Segoe UI', Ubuntu, monospace" font-size="14" fill="#333" font-weight="600">Shell</text>
  <rect x="110" y="291" width="350" height="20" fill="#e1e4e8" rx="3"/>
  <rect x="110" y="291" width="1" height="20" fill="#89e051" rx="3"/>
  <text x="470" y="308" font-family="'Segoe UI', Ubuntu, monospace" font-size="12" fill="#666">0.5% (5.8 KB)</text>

  <text x="20" y="341" font-family="'Segoe UI', Ubuntu, monospace" font-size="14" fill="#333" font-weight="600">Svelte</text>
  <rect x="110" y="324" width="350" height="20" fill="#e1e4e8" rx="3"/>
  <text x="470" y="341" font-family="'Segoe UI', Ubuntu, monospace" font-size="12" fill="#666">0.0% (0.6 KB)</text>

</svg>