<svg width="600" height="410" xmlns="http://www.w3.org/2000/svg">
  <rect width="600" height="410" fill="#ffffff" rx="10"/>
  <text x="20" y="40" font-family="'Segoe UI', Ubuntu, Sans-Serif" font-size="18" font-weight="bold" fill="#2f80ed">Language Statistics</text>

  <text x="20" y="77" font-family="'Segoe UI', Ubuntu, monospace" font-size="14" fill="#333" font-weight="600">C</text>
  <rect x="110" y="60" width="350" height="20" fill="#e1e4e8" rx="3"/>
  <rect x="110" y="60" width="158" height="20" fill="#555555" rx="3"/>
  <text x="470" y="77" font-family="'Segoe UI', Ubuntu, monospace" font-size="12" fill="#666">45.3% (469.9 KB)</text>

  <text x="20" y="110" font-family="'Segoe UI', Ubuntu, monospace" font-size="14" fill="#333" font-weight="600">C++</text>
  <rect x="110" y="93" width="350" height="20" fill="#e1e4e8" rx="3"/>
  <rect x="110" y="93" width="106" height="20" fill="#f34b7d" rx="3"/>
  <text x="470" y="110" font-family="'Segoe UI', Ubuntu, monospace" font-size="12" fill="#666">30.5% (316.2 KB)</text>

  <text x="20" y="143" font-family="'Segoe UI', Ubuntu, monospace" font-size="14" fill="#333" font-weight="600">Go</text>
  <rect x="110" y="126" width="350" height="20" fill="#e1e4e8" rx="3"/>
  <rect x="110" y="126" width="49" height="20" fill="#00ADD8" rx="3"/>
  <text x="470" y="143" font-family="'Segoe UI', Ubuntu, monospace" font-size="12" fill="#666">14.1% (146.2 KB)</text>

  <text x="20" y="176" font-family="'Segoe UI', Ubuntu, monospace" font-size="14" fill="#333" font-weight="600">Makefile</text>
  <rect x="110" y="159" width="350" height="20" fill="#e1e4e8" rx="3"/>
  <rect x="110" y="159" width="17" height="20" fill="#427819" rx="3"/>
  <text x="470" y="176" font-family="'Segoe UI', Ubuntu, monospace" font-size="12" fill="#666">4.9% (51.1 KB)</text>

  <text x="20" y="209" font-family="'Segoe UI', Ubuntu, monospace" font-size="14" fill="#333" font-weight="600">Dart</text>
  <rect x="110" y="192" width="350" height="20" fill="#e1e4e8" rx="3"/>
  <rect x="110" y="192" width="6" height="20" fill="#00B4AB" rx="3"/>
  <text x="470" y="209" font-family="'Segoe UI', Ubuntu, monospace" font-size="12" fill="#666">1.9% (19.6 KB)</text>

  <text x="20" y="242" font-family="'Segoe UI', Ubuntu, monospace" font-size="14" fill="#333" font-weight="600">TypeScript</text>
  <rect x="110" y="225" width="350" height="20" fill="#e1e4e8" rx="3"/>
  <rect x="110" y="225" width="5" height="20" fill="#3178c6" rx="3"/>
  <text x="470" y="242" font-family="'Segoe UI', Ubuntu, monospace" font-size="12" fill="#666">1.6% (16.5 KB)</text>

  <text x="20" y="275" font-family="'Segoe UI', Ubuntu, monospace" font-size="14" fill="#333" font-weight="600">JavaScript</text>
  <rect x="110" y="258" width="350" height="20" fill="#e1e4e8" rx="3"/>
  <rect x="110" y="258" width="3" height="20" fill="#f1e05a" rx="3"/>
  <text x="470" y="275" font-family="'Segoe UI', Ubuntu, monospace" font-size="12" fill="#666">0.9% (9.8 KB)</text>

  <text x="20" y="308" font-family="'Segoe UI', Ubuntu, monospace" font-size="14" fill="#333" font-weight="600">Shell</text>
  <rect x="110" y="291" width="350" height="20" fill="#e1e4e8" rx="3"/>
  <rect x="110" y="291" width="1" height="20" fill="#89e051" rx="3"/>
  <text x="470" y="308" font-family="'Segoe UI', Ubuntu, monospace" font-size="12" fill="#666">0.4% (3.9 KB)</text>

  <text x="20" y="341" font-family="'Segoe UI', Ubuntu, monospace" font-size="14" fill="#333" font-weight="600">Dockerfile</text>
  <rect x="110" y="324" width="350" height="20" fill="#e1e4e8" rx="3"/>
  <text x="470" y="341" font-family="'Segoe UI', Ubuntu, monospace" font-size="12" fill="#666">0.3% (2.9 KB)</text>

  <text x="20" y="374" font-family="'Segoe UI', Ubuntu, monospace" font-size="14" fill="#333" font-weight="600">Nix</text>
  <rect x="110" y="357" width="350" height="20" fill="#e1e4e8" rx="3"/>
  <text x="470" y="374" font-family="'Segoe UI', Ubuntu, monospace" font-size="12" fill="#666">0.1% (1.2 KB)</text>

</svg>